<svg xmlns="http://www.w3.org/2000/svg" xmlns:xlink="http://www.w3.org/1999/xlink" viewBox="0 0 540.67 540.67"><defs><style>.cls-1{fill:#100e2d;}.cls-2{fill:url(#Nouvelle_nuance_de_dégradé_1);}.cls-3{fill:url(#Nouvelle_nuance_de_dégradé_1-2);}.cls-4{fill:url(#Dégradé_sans_nom_134);}.cls-5{fill:url(#Dégradé_sans_nom_15);}.cls-6{fill:url(#Dégradé_sans_nom_17);}.cls-7{fill:url(#Dégradé_sans_nom_28);}</style><linearGradient id="Nouvelle_nuance_de_dégradé_1" x1="234.82" y1="424.56" x2="309.61" y2="104.4" gradientUnits="userSpaceOnUse"><stop offset="0" stop-color="#f163f7"/><stop offset="1" stop-color="#7936f7"/></linearGradient><linearGradient id="Nouvelle_nuance_de_dégradé_1-2" x1="91.76" y1="263.42" x2="483.98" y2="263.42" xlink:href="#Nouvelle_nuance_de_dégradé_1"/><linearGradient id="Dégradé_sans_nom_134" x1="10.54" y1="335.97" x2="488.45" y2="335.97" gradientUnits="userSpaceOnUse"><stop offset="0" stop-color="#c800f7"/><stop offset="1" stop-color="#6828f7"/></linearGradient><linearGradient id="Dégradé_sans_nom_15" x1="166.04" y1="258.25" x2="453.2" y2="155.71" gradientUnits="userSpaceOnUse"><stop offset="0" stop-color="#ee8bf7"/><stop offset="1" stop-color="#7945f7"/></linearGradient><linearGradient id="Dégradé_sans_nom_17" x1="81.85" y1="168.87" x2="399.87" y2="168.87" gradientUnits="userSpaceOnUse"><stop offset="0" stop-color="#f396f7"/><stop offset="1" stop-color="#9c7af7"/></linearGradient><linearGradient id="Dégradé_sans_nom_28" x1="68.71" y1="198.72" x2="414.55" y2="198.72" gradientUnits="userSpaceOnUse"><stop offset="0" stop-color="#ffc6f7"/><stop offset="1" stop-color="#a290f7"/></linearGradient></defs><title>icone</title><g id="Calque_9" data-name="Calque 9"><path id="CONTOUR" class="cls-1" d="M270.81,60.35m0-55A265.29,265.29,0,0,0,167.56,515,265.29,265.29,0,0,0,374.07,26.21,263.68,263.68,0,0,0,270.81,5.35Z"/></g><g id="fond"><path id="FOND-2" data-name="FOND" class="cls-2" d="M270.72,481.12C386.83,481.12,481,387,481,270.89a210.25,210.25,0,0,0-399.1-92.42c-1,2-1.94,4-2.86,6.05a208.08,208.08,0,0,0-15.26,49.39,211.57,211.57,0,0,0-3.25,37C60.48,387,154.61,481.12,270.72,481.12Z"/></g><g id="Calque_3" data-name="Calque 3"><path id="FORME_2" data-name="FORME 2" class="cls-3" d="M358.58,79.85c45.2,29.93,66,69.77,69.41,109.51a139.35,139.35,0,0,1,.34,18.49,154,154,0,0,1-60.76,114.39c-32.65,24.18-75,33.1-118.44,14.28-27.2-11.8-46-25.91-58.8-40.94C138.86,234.87,187,159,187,159,97.48,200.66,78.4,269,99.72,328.56a247,247,0,0,0,70.69,74.57c134.52,92.58,339.22,38.1,310.92-158.8C481.33,155.33,406.64,102,358.58,79.85Z"/></g><g id="Calque_2" data-name="Calque 2"><path id="FORME_1" data-name="FORME 1" class="cls-4" d="M270.72,481.12C386.83,481.12,481,387,481,270.89a209.71,209.71,0,0,0-15.8-80.08C499.18,427.66,212.26,512,99.72,328.56c-16-26.05-28.46-57.47-36-94.65a211.57,211.57,0,0,0-3.25,37C60.48,387,154.61,481.12,270.72,481.12Z"/></g><g id="Calque_4" data-name="Calque 4"><path id="FORME_3" data-name="FORME 3" class="cls-5" d="M249.13,336.52c43.43,18.82,85.79,9.9,118.44-14.28a154,154,0,0,0,60.76-114.39,181.15,181.15,0,0,0-.34-18.49c-3.38-39.74-24.21-79.58-69.41-109.51a208.83,208.83,0,0,0-47.5-15.31c60.17,36.58,82.85,75.19,87.05,109.63C404,222.12,374,262,359.55,277.09c-45.79,45.13-94.71,41.34-119.78,17.11-16.83-16.27-22.92-41.76-10.06-67.87-31.84,25-42.55,49-39.38,69.25C203.08,310.61,221.93,324.72,249.13,336.52Z"/></g><g id="Calque_5" data-name="Calque 5"><path id="FORME_4" data-name="FORME 4" class="cls-6" d="M398.13,174.17c-4.2-34.44-26.88-73-87.05-109.63A210.43,210.43,0,0,0,81.85,178.47c139.14-197,382-40.5,277.7,98.62C374,262,404,222.12,398.13,174.17Z"/></g><g id="Calque_8" data-name="Calque 8"><path id="FORME_5" data-name="FORME 5" class="cls-7" d="M282.71,126.33C403.79,173.8,329.39,351.6,239.77,294.2c25.07,24.23,74,28,119.78-17.11C463.89,138,221-18.56,81.85,178.47c-1,2-1.94,4-2.86,6.05C190.44,82.09,282.71,126.33,282.71,126.33Z"/></g><g id="contour-2" data-name="contour"><path id="CONTOUR-3" data-name="CONTOUR" class="cls-1" d="M270.81,60.35c116.11,0,210.24,94.12,210.24,210.23S386.92,480.82,270.81,480.82,60.58,386.69,60.58,270.58,154.7,60.35,270.81,60.35m0-55A265.29,265.29,0,0,0,167.56,515,265.29,265.29,0,0,0,374.07,26.21,263.68,263.68,0,0,0,270.81,5.35Z"/></g></svg>