<svg width="429" height="101" viewBox="0 0 429 101" fill="none" xmlns="http://www.w3.org/2000/svg">
<path d="M35.2727 100.364C28.2121 100.364 22.1061 98.8636 16.9545 95.8636C11.8333 92.8333 7.87879 88.6212 5.09091 83.2273C2.30303 77.803 0.909091 71.5152 0.909091 64.3636C0.909091 57.1515 2.30303 50.8485 5.09091 45.4545C7.87879 40.0303 11.8333 35.8182 16.9545 32.8182C22.1061 29.7879 28.2121 28.2727 35.2727 28.2727C42.3333 28.2727 48.4242 29.7879 53.5455 32.8182C58.697 35.8182 62.6667 40.0303 65.4545 45.4545C68.2424 50.8485 69.6364 57.1515 69.6364 64.3636C69.6364 71.5152 68.2424 77.803 65.4545 83.2273C62.6667 88.6212 58.697 92.8333 53.5455 95.8636C48.4242 98.8636 42.3333 100.364 35.2727 100.364ZM35.3636 85.3636C38.5758 85.3636 41.2576 84.4545 43.4091 82.6364C45.5606 80.7879 47.1818 78.2727 48.2727 75.0909C49.3939 71.9091 49.9545 68.2879 49.9545 64.2273C49.9545 60.1667 49.3939 56.5455 48.2727 53.3636C47.1818 50.1818 45.5606 47.6667 43.4091 45.8182C41.2576 43.9697 38.5758 43.0455 35.3636 43.0455C32.1212 43.0455 29.3939 43.9697 27.1818 45.8182C25 47.6667 23.3485 50.1818 22.2273 53.3636C21.1364 56.5455 20.5909 60.1667 20.5909 64.2273C20.5909 68.2879 21.1364 71.9091 22.2273 75.0909C23.3485 78.2727 25 80.7879 27.1818 82.6364C29.3939 84.4545 32.1212 85.3636 35.3636 85.3636ZM119.364 29.1818V43.7273H77.3182V29.1818H119.364ZM86.8636 12.4545H106.227V77.5455C106.227 79.3333 106.5 80.7273 107.045 81.7273C107.591 82.697 108.348 83.3788 109.318 83.7727C110.318 84.1667 111.47 84.3636 112.773 84.3636C113.682 84.3636 114.591 84.2879 115.5 84.1364C116.409 83.9545 117.106 83.8182 117.591 83.7273L120.636 98.1364C119.667 98.4394 118.303 98.7879 116.545 99.1818C114.788 99.6061 112.652 99.8636 110.136 99.9545C105.47 100.136 101.379 99.5152 97.8636 98.0909C94.3788 96.6667 91.6667 94.4545 89.7273 91.4545C87.7879 88.4545 86.8333 84.6667 86.8636 80.0909V12.4545ZM152.841 58.6364V99H133.477V5.90909H152.295V41.5H153.114C154.689 37.3788 157.235 34.1515 160.75 31.8182C164.265 29.4545 168.674 28.2727 173.977 28.2727C178.826 28.2727 183.053 29.3333 186.659 31.4545C190.295 33.5455 193.114 36.5606 195.114 40.5C197.144 44.4091 198.144 49.0909 198.114 54.5455V99H178.75V58C178.78 53.697 177.689 50.3485 175.477 47.9545C173.295 45.5606 170.235 44.3636 166.295 44.3636C163.659 44.3636 161.326 44.9242 159.295 46.0455C157.295 47.1667 155.72 48.803 154.568 50.9545C153.447 53.0758 152.871 55.6364 152.841 58.6364ZM244.898 100.364C237.837 100.364 231.731 98.8636 226.58 95.8636C221.458 92.8333 217.504 88.6212 214.716 83.2273C211.928 77.803 210.534 71.5152 210.534 64.3636C210.534 57.1515 211.928 50.8485 214.716 45.4545C217.504 40.0303 221.458 35.8182 226.58 32.8182C231.731 29.7879 237.837 28.2727 244.898 28.2727C251.958 28.2727 258.049 29.7879 263.17 32.8182C268.322 35.8182 272.292 40.0303 275.08 45.4545C277.867 50.8485 279.261 57.1515 279.261 64.3636C279.261 71.5152 277.867 77.803 275.08 83.2273C272.292 88.6212 268.322 92.8333 263.17 95.8636C258.049 98.8636 251.958 100.364 244.898 100.364ZM244.989 85.3636C248.201 85.3636 250.883 84.4545 253.034 82.6364C255.186 80.7879 256.807 78.2727 257.898 75.0909C259.019 71.9091 259.58 68.2879 259.58 64.2273C259.58 60.1667 259.019 56.5455 257.898 53.3636C256.807 50.1818 255.186 47.6667 253.034 45.8182C250.883 43.9697 248.201 43.0455 244.989 43.0455C241.746 43.0455 239.019 43.9697 236.807 45.8182C234.625 47.6667 232.973 50.1818 231.852 53.3636C230.761 56.5455 230.216 60.1667 230.216 64.2273C230.216 68.2879 230.761 71.9091 231.852 75.0909C232.973 78.2727 234.625 80.7879 236.807 82.6364C239.019 84.4545 241.746 85.3636 244.989 85.3636ZM311.216 58.6364V99H291.852V29.1818H310.307V41.5H311.125C312.67 37.4394 315.261 34.2273 318.898 31.8636C322.534 29.4697 326.943 28.2727 332.125 28.2727C336.973 28.2727 341.201 29.3333 344.807 31.4545C348.413 33.5758 351.216 36.6061 353.216 40.5455C355.216 44.4545 356.216 49.1212 356.216 54.5455V99H336.852V58C336.883 53.7273 335.792 50.3939 333.58 48C331.367 45.5758 328.322 44.3636 324.443 44.3636C321.837 44.3636 319.534 44.9242 317.534 46.0455C315.564 47.1667 314.019 48.803 312.898 50.9545C311.807 53.0758 311.246 55.6364 311.216 58.6364ZM371.477 99V29.1818H390.841V99H371.477ZM381.205 20.1818C378.326 20.1818 375.856 19.2273 373.795 17.3182C371.765 15.3788 370.75 13.0606 370.75 10.3636C370.75 7.69697 371.765 5.40909 373.795 3.5C375.856 1.5606 378.326 0.590904 381.205 0.590904C384.083 0.590904 386.538 1.5606 388.568 3.5C390.629 5.40909 391.659 7.69697 391.659 10.3636C391.659 13.0606 390.629 15.3788 388.568 17.3182C386.538 19.2273 384.083 20.1818 381.205 20.1818ZM417.67 100.182C414.67 100.182 412.095 99.1212 409.943 97C407.822 94.8485 406.761 92.2727 406.761 89.2727C406.761 86.303 407.822 83.7576 409.943 81.6364C412.095 79.5152 414.67 78.4545 417.67 78.4545C420.58 78.4545 423.125 79.5152 425.307 81.6364C427.489 83.7576 428.58 86.303 428.58 89.2727C428.58 91.2727 428.064 93.1061 427.034 94.7727C426.034 96.4091 424.716 97.7273 423.08 98.7273C421.443 99.697 419.64 100.182 417.67 100.182Z" fill="white"/>
</svg>
